<svg width="713" height="731" viewBox="0 0 713 731" fill="none" xmlns="http://www.w3.org/2000/svg">
<line x1="157" y1="726" x2="706" y2="726" stroke="black" stroke-width="2"/>
<path d="M279.166 7H278.474L278.23 7.6474L8.06423 724.647L7.55457 726H9H158.646H159.358L159.591 725.327L218.614 554.761H494.386L553.409 725.327L553.642 726H554.354H704H705.445L704.936 724.647L434.77 7.6474L434.526 7H433.834H279.166ZM385.672 250.625L385.68 250.651L385.689 250.676L449.487 428.588H263.513L327.311 250.676L327.32 250.651L327.328 250.625L353.227 164.216H359.773L385.672 250.625Z" stroke="black" stroke-width="2"/>
<rect x="270.75" y="0.75" width="12.5" height="12.5" fill="white" stroke="black" stroke-width="1.5"/>
<rect x="425.75" y="0.75" width="12.5" height="12.5" fill="white" stroke="black" stroke-width="1.5"/>
<rect x="348.75" y="163.75" width="12.5" height="12.5" fill="white" stroke="black" stroke-width="1.5"/>
<rect x="257.75" y="419.75" width="12.5" height="12.5" fill="white" stroke="black" stroke-width="1.5"/>
<rect x="441.75" y="419.75" width="12.5" height="12.5" fill="white" stroke="black" stroke-width="1.5"/>
<rect x="211.75" y="550.75" width="12.5" height="12.5" fill="white" stroke="black" stroke-width="1.5"/>
<rect x="0.75" y="717.75" width="12.5" height="12.5" fill="white" stroke="black" stroke-width="1.5"/>
<rect x="153.75" y="717.75" width="12.5" height="12.5" fill="white" stroke="black" stroke-width="1.5"/>
<rect x="546.75" y="717.75" width="12.5" height="12.5" fill="white" stroke="black" stroke-width="1.5"/>
<rect x="699.75" y="717.75" width="12.5" height="12.5" fill="white" stroke="black" stroke-width="1.5"/>
<rect x="487.75" y="550.75" width="12.5" height="12.5" fill="white" stroke="black" stroke-width="1.5"/>
</svg>
