<svg fill="none" height="731" viewBox="0 0 713 731" width="713" xmlns="http://www.w3.org/2000/svg"><g stroke="#000"><path d="m157 726h549" stroke-width="2"/><path d="m279.166 7h-.692l-.244.6474-270.16577 716.9996-.50966 1.353h1.44543 149.646.712l.233-.673 59.023-170.566h275.772l59.023 170.566.233.673h.712 149.646 1.445l-.509-1.353-270.166-716.9996-.244-.6474h-.692zm106.506 243.625.008.026.009.025 63.798 177.912h-185.974l63.798-177.912.009-.025.008-.026 25.899-86.409h6.546z" stroke-width="2"/><g fill="#fff" stroke-width="1.5"><path d="m270.75.75h12.5v12.5h-12.5z"/><path d="m425.75.75h12.5v12.5h-12.5z"/><path d="m348.75 163.75h12.5v12.5h-12.5z"/><path d="m257.75 419.75h12.5v12.5h-12.5z"/><path d="m441.75 419.75h12.5v12.5h-12.5z"/><path d="m211.75 550.75h12.5v12.5h-12.5z"/><path d="m.75 717.75h12.5v12.5h-12.5z"/><path d="m153.75 717.75h12.5v12.5h-12.5z"/><path d="m546.75 717.75h12.5v12.5h-12.5z"/><path d="m699.75 717.75h12.5v12.5h-12.5z"/><path d="m487.75 550.75h12.5v12.5h-12.5z"/></g></g></svg>