<svg fill="none" height="26" viewBox="0 0 26 26" width="26" xmlns="http://www.w3.org/2000/svg" xmlns:xlink="http://www.w3.org/1999/xlink"><mask id="a" fill="#fff"><path d="m18.8452 10.5271c-.1575-.3781-.3571-.73525-.5882-1.08186-.231-.3361-.4831-.6512-.7772-.93479-.2836-.28359-.5987-.54617-.9453-.77725-.3361-.23107-.7037-.43063-1.0818-.58818-.3887-.15755-.7878-.28359-1.1974-.36761-.4201-.08403-.8508-.12604-1.2814-.12604-.4307 0-.8613.04201-1.2814.12604-.4097.08402-.8088.21006-1.1974.36761-.3781.15755-.73522.35711-1.08183.58818-.3361.23108-.6512.48316-.94529.77725-.28359.28359-.54618.59869-.77725.93479-.23107.33611-.43063.70376-.58818 1.08186-.16805.3886-.28359.7877-.36762 1.1974-.08402.4201-.12604.8507-.12604 1.2814 0 .4306.04202.8612.12604 1.2814.08403.4096.21007.8087.36762 1.1973.15755.3781.35711.7458.58818 1.0819s.48315.6512.77725.9348c.28358.2835.59868.5461.94529.7772.33611.2311.70373.4306 1.08183.5882.3886.168.7877.2836 1.1974.3676.4201.084.8507.126 1.2814.126.4306 0 .8613-.042 1.2814-.126.4096-.084.8087-.2101 1.1974-.3676.3781-.1576.7352-.3571 1.0818-.5882.3361-.2311.6512-.4832.9453-.7772.2836-.2836.5462-.5987.7772-.9348.2311-.3361.4307-.7038.5882-1.0819.1576-.3781.2836-.7877.3676-1.1973.0841-.4202.1261-.8508.1261-1.2814 0-.4307-.042-.8613-.1261-1.2814-.0735-.4097-.1995-.8088-.3676-1.1974zm-5.8503-2.95145c1.3759 0 2.6258.51467 3.5816 1.35493-.0105.02101-.7877 1.19742-2.8359 1.96412-.9243-1.70154-1.9431-3.05646-2.0271-3.1615.4096-.10503.8402-.15755 1.2814-.15755zm-1.3024.15755s-.0105 0-.021 0zm-1.0083.35712c.0735.09453 1.0713 1.45995 2.0166 3.12998-2.6048.6932-4.86302.6617-5.01007.6617.34661-1.6805 1.47046-3.07746 2.99347-3.79168zm-1.72258 8.53918c-.86126-.9663-1.38642-2.2372-1.38642-3.6236 0-.0526 0-.1156 0-.1681.09453 0 2.7729.063 5.5667-.7772.1576.3046.3046.6091.4412.9242-.0736.0211-.1471.0421-.2101.0631-2.9304.9453-4.42188 3.5816-4.41138 3.5816-.0105 0 0 0 0 0zm4.03328 1.796c-1.2814 0-2.4578-.4411-3.39258-1.1868-.021-.0105-.04201-.0315-.07352-.0525.03151.021.05252.042.07352.0525.03151.021.05252.042.05252.042s1.03986-2.2687 4.25386-3.3926c.0105 0 .021-.0105.0315-.0105.7667 1.9851 1.0818 3.6447 1.1553 4.1173-.6302.2836-1.3444.4306-2.1006.4306zm3.0354-.9242c-.0525-.3256-.3466-1.9221-1.0608-3.8758 1.754-.2835 3.2665.1996 3.3821.2416-.2416 1.5125-1.1029 2.8149-2.3213 3.6342zm-1.3864-4.7265c-.042-.0946-.0735-.1891-.1155-.2836-.1156-.2626-.2311-.5252-.3572-.7878 2.1427-.8717 3.0145-2.13212 3.025-2.14262.7562.92432 1.2184 2.10062 1.2394 3.39252-.0945-.021-1.9326-.4201-3.7917-.1785z" fill="#fff"/></mask><path d="m18.6665 1h-11.34352c-3.47658 0-6.32298 2.90941-6.32298 6.45952v11.08098c0 3.5501 2.8464 6.4595 6.32298 6.4595h11.34352c3.4766 0 6.323-2.9094 6.323-6.4595v-11.08098c0-3.55011-2.8464-6.45952-6.323-6.45952z" stroke="#1300ed" stroke-miterlimit="10" stroke-width="1.5"/><path d="m18.8452 10.5271c-.1575-.3781-.3571-.73525-.5882-1.08186-.231-.3361-.4831-.6512-.7772-.93479-.2836-.28359-.5987-.54617-.9453-.77725-.3361-.23107-.7037-.43063-1.0818-.58818-.3887-.15755-.7878-.28359-1.1974-.36761-.4201-.08403-.8508-.12604-1.2814-.12604-.4307 0-.8613.04201-1.2814.12604-.4097.08402-.8088.21006-1.1974.36761-.3781.15755-.73522.35711-1.08183.58818-.3361.23108-.6512.48316-.94529.77725-.28359.28359-.54618.59869-.77725.93479-.23107.33611-.43063.70376-.58818 1.08186-.16805.3886-.28359.7877-.36762 1.1974-.08402.4201-.12604.8507-.12604 1.2814 0 .4306.04202.8612.12604 1.2814.08403.4096.21007.8087.36762 1.1973.15755.3781.35711.7458.58818 1.0819s.48315.6512.77725.9348c.28358.2835.59868.5461.94529.7772.33611.2311.70373.4306 1.08183.5882.3886.168.7877.2836 1.1974.3676.4201.084.8507.126 1.2814.126.4306 0 .8613-.042 1.2814-.126.4096-.084.8087-.2101 1.1974-.3676.3781-.1576.7352-.3571 1.0818-.5882.3361-.2311.6512-.4832.9453-.7772.2836-.2836.5462-.5987.7772-.9348.2311-.3361.4307-.7038.5882-1.0819.1576-.3781.2836-.7877.3676-1.1973.0841-.4202.1261-.8508.1261-1.2814 0-.4307-.042-.8613-.1261-1.2814-.0735-.4097-.1995-.8088-.3676-1.1974zm-5.8503-2.95145c1.3759 0 2.6258.51467 3.5816 1.35493-.0105.02101-.7877 1.19742-2.8359 1.96412-.9243-1.70154-1.9431-3.05646-2.0271-3.1615.4096-.10503.8402-.15755 1.2814-.15755zm-1.3024.15755s-.0105 0-.021 0zm-1.0083.35712c.0735.09453 1.0713 1.45995 2.0166 3.12998-2.6048.6932-4.86302.6617-5.01007.6617.34661-1.6805 1.47046-3.07746 2.99347-3.79168zm-1.72258 8.53918c-.86126-.9663-1.38642-2.2372-1.38642-3.6236 0-.0526 0-.1156 0-.1681.09453 0 2.7729.063 5.5667-.7772.1576.3046.3046.6091.4412.9242-.0736.0211-.1471.0421-.2101.0631-2.9304.9453-4.42188 3.5816-4.41138 3.5816-.0105 0 0 0 0 0zm4.03328 1.796c-1.2814 0-2.4578-.4411-3.39258-1.1868-.021-.0105-.04201-.0315-.07352-.0525.03151.021.05252.042.07352.0525.03151.021.05252.042.05252.042s1.03986-2.2687 4.25386-3.3926c.0105 0 .021-.0105.0315-.0105.7667 1.9851 1.0818 3.6447 1.1553 4.1173-.6302.2836-1.3444.4306-2.1006.4306zm3.0354-.9242c-.0525-.3256-.3466-1.9221-1.0608-3.8758 1.754-.2835 3.2665.1996 3.3821.2416-.2416 1.5125-1.1029 2.8149-2.3213 3.6342zm-1.3864-4.7265c-.042-.0946-.0735-.1891-.1155-.2836-.1156-.2626-.2311-.5252-.3572-.7878 2.1427-.8717 3.0145-2.13212 3.025-2.14262.7562.92432 1.2184 2.10062 1.2394 3.39252-.0945-.021-1.9326-.4201-3.7917-.1785z" fill="#521af2"/><path d="m18.8452 10.5271-.9231.3846.0053.0123zm-.5882-1.08186.8321-.5547-.004-.00594-.004-.00588zm-.7772-.93479-.7071.70711.0064.00642.0065.00631zm-.9453-.77725-.5665.82405.0058.00404.006.00396zm-1.0818-.58818.3846-.92312-.0089-.00362zm-1.1974-.36761.2009-.97962-.0048-.00096zm-2.5628 0-.1961-.98059-.0049.00099zm-1.1974.36761-.3757-.92678-.0089.00371zm-1.08183.58818-.5547-.83205-.00594.00397-.00589.00404zm-2.31072 2.7939.91794.3969.00514-.0123zm-.36762 1.1974-.97961-.201-.00097.0048zm0 2.5628-.98059.1961.00099.0048zm.36762 1.1973-.92678.3758.0037.0088zm1.36543 2.0167.7071-.7072-.00643-.0064-.00654-.0063zm.94529.7772.56653-.824-.00589-.0041-.00594-.0039zm1.08183.5882.3969-.918-.0123-.0051zm1.1974.3676-.201.9796.0049.001zm2.5628 0 .1961.9806.0048-.001zm1.1974-.3676.3757.9268.0089-.0037zm1.0818-.5882.5547.8321.0059-.004.0059-.0041zm2.6783-3.9912.9796.2009.001-.0048zm0-2.5628-.9842.1766.0017.0098.0019.0097zm-2.6363-2.79392.8944.44721.3447-.68937-.5788-.50888zm-2.8359 1.96412-.8787.4773.415.7641.8143-.3049zm-2.0271-3.1615-.2484-.96866-1.49957.38451.96707 1.20885zm-1.0293.35712.7893-.61394-.4905-.6307-.7234.33925zm2.0166 3.12998.2572.9664 1.2505-.3328-.6375-1.1262zm-5.01007.6617-.97939-.202-.24791 1.202h1.2273zm1.27089 4.7475v1h2.23088l-1.48436-1.6654zm-1.38642-3.7917v-1h-1v1zm5.5667-.7772.8883-.4595-.3814-.7372-.7949.239zm.4412.9242.2747.9616 1.0961-.3132-.4533-1.046zm-.2101.0631.307.9517.0092-.003zm-3.77068 4.1908.62358-.7818-.0822-.0656-.0942-.0471zm0 0 .55468-.8321-.0518-.0345-.0557-.0279zm.05252.042-.70715.7071 1.01695 1.017.59926-1.3075zm4.25386-3.3926v-1h-.1698l-.1603.0561zm.0315-.0105.9328-.3603-.2471-.6397h-.6857zm1.1553 4.1173.4104.9119.6949-.3127-.1171-.7529zm.9348-.4936-.9872.1592.2488 1.5424 1.2964-.8718zm-1.0608-3.8758-.1596-.9871-1.1954.1932.4158 1.1373zm3.3821.2416.9874.1577.1303-.8153-.776-.2822zm-3.7077-1.0923-.9138.4061.3029.6817.7398-.0962zm-.1155-.2836-.9154.4027.0016.0034zm-.3572-.7878-.3768-.9262-.9847.4006.46.9584zm3.025-2.14262.774-.63324-.6998-.85521-.7813.78134zm1.2394 3.39252-.217.9762 1.2375.275-.0207-1.2674zm1.3327-2.8108c-.187-.4488-.4198-.8628-.6792-1.25196l-1.6641 1.1094c.2027.30406.369.60426.4971.91176zm-.6872-1.26378c-.2578-.37491-.5522-.74579-.9072-1.08811l-1.3883 1.43968c.2332.22485.443.48417.6474.78151zm-.8942-1.07538c-.3272-.32717-.6929-.63232-1.0977-.90219l-1.1094 1.6641c.2884.19228.5529.4123.7929.65231zm-1.0859-.89418c-.3939-.27083-.8226-.50341-1.2637-.68721l-.7693 1.84615c.3151.13129.6217.29783.9.48915zm-1.2726-.69088c-.4373-.17726-.895-.3226-1.3722-.42047l-.4019 1.9592c.3421.07017.6827.17692 1.0227.31475zm-1.377-.42145c-.4858-.09717-.9822-.14546-1.4775-.14546v2c.3659 0 .7308.03573 1.0853.10662zm-1.4775-.14546c-.4954 0-.9917.04829-1.4775.14546l.3922 1.96116c.3544-.07089.7193-.10662 1.0853-.10662zm-1.4824.14644c-.4771.09787-.9348.24321-1.3721.42047l.7514 1.85348c.34-.13783.6805-.24458 1.0226-.31475zm-1.381.42414c-.44878.18698-.86278.41977-1.25193.6792l1.1094 1.6641c.30403-.20271.60423-.36904.91173-.49715zm-1.26376.68721c-.376.2585-.74047.54878-1.08587.89418l1.41421 1.41422c.24278-.24279.50851-.45667.80472-.66031zm-1.08587.89418c-.32671.32672-.62845.68886-.89418 1.07538l1.64808 1.13308c.19642-.28572.41985-.55378.66031-.79424zm-.89418 1.07538c-.27084.39394-.50341.82262-.68722 1.26378l1.84616.7692c.13129-.3151.29783-.6217.48914-.8999zm-.682 1.25148c-.20102.4648-.33476.9322-.42936 1.3933l1.95921.4019c.07345-.3581.17078-.689.30587-1.0014zm-.43034 1.3981c-.09716.4858-.14546.9822-.14546 1.4776h2c0-.366.03573-.7309.10662-1.0853zm-.14546 1.4776c0 .4953.0483.9917.14546 1.4775l1.96116-.3923c-.07089-.3544-.10662-.7193-.10662-1.0852zm.14644 1.4823c.09788.4772.24321.9349.42048 1.3721l1.85348-.7514c-.13783-.34-.24458-.6805-.31475-1.0226zm.42414 1.381c.18381.4412.41638.8699.68722 1.2638l1.64808-1.1331c-.19131-.2782-.35785-.5848-.48914-.8999zm.68722 1.2638c.25775.3749.55215.7458.90715 1.0881l1.38827-1.4397c-.23318-.2248-.44294-.4842-.64734-.7815zm.89418 1.0754c.32717.3271.6929.6323 1.0977.9022l1.1094-1.6641c-.28841-.1923-.55288-.4123-.79289-.6524zm1.08587.8941c.39394.2709.82261.5035 1.26376.6873l.7692-1.8462c-.3151-.1313-.6216-.2978-.8999-.4891zm1.25146.682c.4649.2011.9322.3348 1.3933.4294l.4019-1.9592c-.3581-.0735-.689-.1708-1.0014-.3059zm1.3982.4304c.4858.0971.9821.1454 1.4775.1454v-2c-.366 0-.7309-.0357-1.0853-.1066zm1.4775.1454c.4953 0 .9917-.0483 1.4775-.1454l-.3922-1.9612c-.3545.0709-.7194.1066-1.0853.1066zm1.4823-.1464c.4772-.0979.9349-.2432 1.3722-.4205l-.7514-1.8535c-.34.1379-.6806.2446-1.0227.3148zm1.3811-.4241c.4487-.187.8627-.4198 1.2519-.6792l-1.1094-1.6641c-.3041.2027-.6043.369-.9118.4971zm1.2637-.6873c.376-.2585.7405-.5487 1.0859-.8941l-1.4142-1.4143c-.2428.2428-.5085.4567-.8047.6604zm1.0859-.8941c.3267-.3267.6284-.6889.8942-1.0754l-1.6481-1.1331c-.1964.2857-.4199.5538-.6603.7942zm.8942-1.0754c.2708-.3939.5034-.8226.6872-1.2638l-1.8462-.7692c-.1313.3151-.2978.6217-.4891.8999zm.6872-1.2638c.1825-.438.3273-.9092.4241-1.381l-1.9592-.4019c-.0712.3474-.1785.6955-.3111 1.0137zm.4251-1.3858c.0972-.4858.1455-.9822.1455-1.4775h-2c0 .3659-.0358.7308-.1067 1.0852zm.1455-1.4775c0-.4954-.0483-.9918-.1455-1.4776l-1.9612.3923c.0709.3544.1067.7193.1067 1.0853zm-.1418-1.4581c-.0887-.4944-.2393-.9673-.434-1.4176l-1.8357.7938c.1413.3269.2428.6522.3012.9771zm-7.2022-2.97215c1.1207 0 2.1387.41795 2.9213 1.10597l1.3206-1.50208c-1.129-.99251-2.6108-1.60389-4.2419-1.60389zm2.6872-.09228c.0134-.02691.0251-.04715.0282-.0524.0049-.00853.009-.01524.0113-.01913.0048-.00791.0086-.01377.0104-.01654.0038-.00602.0062-.00947.0065-.00987.0008-.00125-.0018.00264-.0082.01134-.0126.01716-.0375.04963-.0755.09441-.076.08946-.2029.22608-.3881.38706-.3691.32076-.9734.74179-1.8767 1.07993l.7012 1.87303c1.1449-.4286 1.9532-.9791 2.4875-1.4435.2664-.2315.4638-.44088.6005-.60186.0683-.08043.1219-.1493.1618-.20349.0199-.02697.037-.05126.0514-.07243.007-.01036.0146-.02169.0221-.03344.0037-.00564.0089-.01383.0148-.02351.0029-.00477.0074-.01223.0127-.02137.0033-.00586.0153-.02657.0289-.05381zm-1.0628 1.93403c-.9568-1.76158-2.0103-3.16552-2.125-3.30889l-1.5617 1.24939c-.0004-.00057.0163.02087.0533.07037.0344.04592.0815.10982.1395.18996.1159.16027.2737.38369.4575.65618.3684.54629.8362 1.28239 1.279 2.09759zm-2.6574-1.71553c.324-.0831.671-.12622 1.033-.12622v-2c-.5203 0-1.0346.06193-1.5298.18889zm-.2694-.96867c0-1 0-1 0-1h-.0001s0 0-.0001 0-.0001 0-.0001 0c-.0001 0-.0001 0-.0001 0s0 0-.0001 0 0 0-.0001 0-.0001 0-.0001 0 0 0-.0001 0h-.0001-.0001-.0001c-.0001 0-.0001 0-.0001 0s0 0-.0001 0-.0001 0-.0001 0c-.0001 0-.0001 0-.0001 0h-.0001c-.0001 0-.0001 0-.0001 0-.0001 0-.0001 0-.0001 0s0 0-.0001 0h-.0001c-.0001 0-.0001 0-.0001 0h-.0001s0 0-.0001 0h-.0001-.0001s0 0-.0001 0-.0001 0-.0001 0c-.0001 0-.0001 0-.0001 0-.0001 0-.0001 0-.0001 0-.0001 0-.0001 0-.0001 0-.0001 0-.0001 0-.0001 0-.0001 0-.0001 0-.0001 0-.0001 0-.0001 0-.0001 0s0 0-.0001 0 0 0-.0001 0h-.0001c-.0001 0-.0001 0-.0001 0-.0001 0-.0001 0-.0001 0s0 0-.0001 0h-.0001c-.0001 0-.0001 0-.0001 0h-.0001c-.0001 0-.0001 0-.0001 0s0 0-.0001 0-.0001 0-.0001 0 0 0-.0001 0-.0001 0-.0001 0 0 0-.0001 0-.0001 0-.0001 0 0 0-.0001 0-.0001 0-.0001 0h-.0001s0 0-.0001 0-.0001 0-.0001 0h-.0001s0 0-.0001 0-.0001 0-.0001 0h-.0001s0 0-.0001 0-.0001 0-.0001 0c-.0001 0-.0001 0-.0001 0h-.0001s0 0-.0001 0 0 0-.0001 0-.0001 0-.0001 0c-.0001 0-.0001 0-.0001 0h-.0001-.0001s0 0-.0001 0 0 0-.0001 0 0 0-.0001 0-.0001 0-.0001 0c-.0001 0-.0001 0-.0001 0-.0001 0-.0001 0-.0001 0h-.0001-.0001-.0001-.0001-.0001-.0001-.0001-.0001-.0001-.0001-.0001-.0001-.0001-.0001-.0001-.0001-.0001c-.0001 0-.0001 0-.0001 0-.0001 0-.0001 0-.0001 0-.0001 0-.0001 0-.0001 0-.0001 0-.0001 0-.0001 0s0 0-.0001 0 0 0-.0001 0 0 0-.0001 0h-.0001-.0001-.0001c-.0001 0-.0001 0-.0001 0-.0001 0-.0001 0-.0001 0-.0001 0-.0001 0-.0001 0s0 0-.0001 0 0 0-.0001 0h-.0001-.0001c-.0001 0-.0001 0-.0001 0-.0001 0-.0001 0-.0001 0s0 0-.0001 0 0 0-.0001 0h-.0001c-.0001 0-.0001 0-.0001 0-.0001 0-.0001 0-.0001 0s0 0-.0001 0 0 0-.0001 0h-.0001c-.0001 0-.0001 0-.0001 0-.0001 0-.0001 0-.0001 0s0 0-.0001 0h-.0001-.0001c-.0001 0-.0001 0-.0001 0s0 0-.0001 0 0 0-.0001 0h-.0001c-.0001 0-.0001 0-.0001 0s0 0-.0001 0 0 0-.0001 0h-.0001c-.0001 0-.0001 0-.0001 0s0 0-.0001 0 0 0-.0001 0h-.0001c-.0001 0-.0001 0-.0001 0s0 0-.0001 0h-.0001c-.0001 0-.0001 0-.0001 0-.0001 0-.0001 0-.0001 0s0 0-.0001 0h-.0001c-.0001 0-.0001 0-.0001 0s0 0-.0001 0h-.0001c-.0001 0-.0001 0-.0001 0s0 0-.0001 0h-.0001-.0001c-.0001 0-.0001 0-.0001 0s0 0-.0001 0h-.0001c-.0001 0-.0001 0-.0001 0s0 0-.0001 0h-.0001c-.0001 0-.0001 0-.0001 0s0 0-.0001 0h-.0001c-.0001 0-.0001 0-.0001 0s0 0-.0001 0h-.0001c-.0001 0-.0001 0-.0001 0s0 0-.0001 0h-.0001c-.0001 0-.0001 0-.0001 0s0 0-.0001 0h-.0001c-.0001 0-.0001 0-.0001 0s0 0-.0001 0h-.0001c-.0001 0-.0001 0-.0001 0s0 0-.0001 0h-.0001c-.0001 0-.0001 0-.0001 0s0 0-.0001 0-.0001 0-.0001 0 0 0-.0001 0h-.0001c-.0001 0-.0001 0-.0001 0s0 0-.0001 0h-.0001c-.0001 0-.0001 0-.0001 0s0 0-.0001 0h-.0001c-.0001 0-.0001 0-.0001 0s0 0-.0001 0h-.0001s0 0-.0001 0h-.0001c-.0001 0-.0001 0-.0001 0s0 0-.0001 0h-.0001c-.0001 0-.0001 0-.0001 0s0 0-.0001 0h-.0001c-.0001 0-.0001 0-.0001 0s0 0-.0001 0-.0001 0-.0001 0 0 0-.0001 0h-.0001c-.0001 0-.0001 0-.0001 0s0 0-.0001 0h-.0001c-.0001 0-.0001 0-.0001 0s0 0-.0001 0-.0001 0-.0001 0 0 0-.0001 0h-.0001c-.0001 0-.0001 0-.0001 0s0 0-.0001 0v2h.0001.0001.0001.0001.0001.0001.0001.0001.0001.0001.0001.0001.0001.0001.0001.0001.0001.0001.0001.0001.0001.0001.0001.0001.0001.0001.0001.0001.0001.0001.0001.0001.0001.0001.0001.0001.0001.0001.0001.0001.0001.0001.0001.0001.0001.0001.0001.0001.0001.0001.0001.0001.0001.0001.0001.0001.0001.0001.0001.0001.0001.0001.0001.0001.0001.0001.0001.0001.0001.0001.0001.0001.0001.0001.0001.0001.0001.0001.0001.0001.0001.0001.0001.0001.0001.0001.0001.0001.0001.0001.0001.0001.0001.0001.0001.0001.0001.0001.0001.0001.0001.0001.0001.0001.0001.0001.0001.0001.0001.0001.0001.0001.0001.0001.0001.0001.0001.0001.0001.0001.0001.0001.0001.0001.0001.0001.0001.0001.0001.0001.0001.0001.0001.0001.0001.0001.0001.0001.0001.0001.0001.0001.0001.0001.0001.0001.0001.0001.0001.0001.0001.0001.0001.0001.0001.0001.0001.0001.0001.0001.0001.0001.0001.0001.0001.0001.0001.0001.0001.0001.0001.0001.0001.0001.0001.0001.0001.0001.0001.0001.0001.0001.0001.0001.0001.0001.0001.0001.0001.0001.0001.0001.0001.0001.0001.0001.0001.0001.0001.0001.0001.0001.0001.0001.0001.0001.0001.0001.0001.0001s0 0 0-1zm-.021 1h.0001.0001.0001.0001.0001.0001.0001.0001.0001.0001.0001.0001.0001.0001.0001.0001.0001.0001.0001.0001.0001.0001.0001.0001.0001.0001.0001.0001.0001.0001.0001.0001.0001.0001.0001.0001.0001.0001.0001.0001.0001.0001.0001.0001.0001.0001.0001.0001.0001.0001.0001.0001.0001.0001.0001.0001.0001.0001.0001.0001.0001.0001.0001.0001.0001.0001.0001.0001.0001.0001.0001.0001.0001.0001.0001.0001.0001.0001.0001.0001.0001.0001.0001.0001.0001.0001.0001.0001.0001.0001.0001.0001.0001.0001.0001.0001.0001.0001.0001.0001.0001.0001.0001.0001.0001.0001.0001.0001.0001.0001.0001.0001.0001.0001.0001.0001.0001.0001.0001.0001.0001.0001.0001.0001.0001.0001.0001.0001.0001.0001.0001.0001.0001.0001.0001.0001.0001.0001.0001.0001.0001.0001.0001.0001.0001.0001.0001.0001.0001.0001.0001.0001.0001.0001.0001.0001.0001.0001.0001.0001.0001.0001.0001.0001.0001.0001.0001.0001.0001.0001.0001.0001.0001.0001.0001.0001.0001.0001.0001.0001.0001.0001.0001.0001.0001.0001.0001.0001.0001.0001.0001.0001.0001.0001.0001.0001.0001.0001.0001.0001.0001.0001.0001.0001.0001.0001.0001.0001.0001.0001s0 0 0-1 0-1 0-1h-.0001s0 0-.0001 0-.0001 0-.0001 0c-.0001 0-.0001 0-.0001 0s0 0-.0001 0 0 0-.0001 0-.0001 0-.0001 0 0 0-.0001 0h-.0001-.0001-.0001c-.0001 0-.0001 0-.0001 0s0 0-.0001 0-.0001 0-.0001 0c-.0001 0-.0001 0-.0001 0h-.0001c-.0001 0-.0001 0-.0001 0-.0001 0-.0001 0-.0001 0s0 0-.0001 0h-.0001c-.0001 0-.0001 0-.0001 0h-.0001s0 0-.0001 0h-.0001-.0001s0 0-.0001 0-.0001 0-.0001 0c-.0001 0-.0001 0-.0001 0-.0001 0-.0001 0-.0001 0-.0001 0-.0001 0-.0001 0-.0001 0-.0001 0-.0001 0-.0001 0-.0001 0-.0001 0-.0001 0-.0001 0-.0001 0s0 0-.0001 0 0 0-.0001 0h-.0001c-.0001 0-.0001 0-.0001 0-.0001 0-.0001 0-.0001 0s0 0-.0001 0h-.0001c-.0001 0-.0001 0-.0001 0h-.0001c-.0001 0-.0001 0-.0001 0s0 0-.0001 0-.0001 0-.0001 0 0 0-.0001 0-.0001 0-.0001 0 0 0-.0001 0-.0001 0-.0001 0 0 0-.0001 0-.0001 0-.0001 0h-.0001s0 0-.0001 0-.0001 0-.0001 0h-.0001s0 0-.0001 0-.0001 0-.0001 0h-.0001s0 0-.0001 0-.0001 0-.0001 0c-.0001 0-.0001 0-.0001 0h-.0001s0 0-.0001 0 0 0-.0001 0-.0001 0-.0001 0c-.0001 0-.0001 0-.0001 0h-.0001-.0001s0 0-.0001 0 0 0-.0001 0 0 0-.0001 0-.0001 0-.0001 0c-.0001 0-.0001 0-.0001 0-.0001 0-.0001 0-.0001 0h-.0001-.0001-.0001-.0001-.0001-.0001-.0001-.0001-.0001-.0001-.0001-.0001-.0001-.0001-.0001-.0001-.0001c-.0001 0-.0001 0-.0001 0-.0001 0-.0001 0-.0001 0-.0001 0-.0001 0-.0001 0-.0001 0-.0001 0-.0001 0s0 0-.0001 0 0 0-.0001 0 0 0-.0001 0h-.0001-.0001-.0001c-.0001 0-.0001 0-.0001 0-.0001 0-.0001 0-.0001 0-.0001 0-.0001 0-.0001 0s0 0-.0001 0 0 0-.0001 0h-.0001-.0001c-.0001 0-.0001 0-.0001 0-.0001 0-.0001 0-.0001 0s0 0-.0001 0 0 0-.0001 0h-.0001c-.0001 0-.0001 0-.0001 0-.0001 0-.0001 0-.0001 0s0 0-.0001 0 0 0-.0001 0h-.0001c-.0001 0-.0001 0-.0001 0-.0001 0-.0001 0-.0001 0s0 0-.0001 0h-.0001-.0001c-.0001 0-.0001 0-.0001 0s0 0-.0001 0 0 0-.0001 0h-.0001c-.0001 0-.0001 0-.0001 0s0 0-.0001 0 0 0-.0001 0h-.0001c-.0001 0-.0001 0-.0001 0s0 0-.0001 0 0 0-.0001 0h-.0001c-.0001 0-.0001 0-.0001 0s0 0-.0001 0h-.0001c-.0001 0-.0001 0-.0001 0-.0001 0-.0001 0-.0001 0s0 0-.0001 0h-.0001c-.0001 0-.0001 0-.0001 0s0 0-.0001 0h-.0001c-.0001 0-.0001 0-.0001 0s0 0-.0001 0h-.0001-.0001c-.0001 0-.0001 0-.0001 0s0 0-.0001 0h-.0001c-.0001 0-.0001 0-.0001 0s0 0-.0001 0h-.0001c-.0001 0-.0001 0-.0001 0s0 0-.0001 0h-.0001c-.0001 0-.0001 0-.0001 0s0 0-.0001 0h-.0001c-.0001 0-.0001 0-.0001 0s0 0-.0001 0h-.0001c-.0001 0-.0001 0-.0001 0s0 0-.0001 0h-.0001c-.0001 0-.0001 0-.0001 0s0 0-.0001 0h-.0001c-.0001 0-.0001 0-.0001 0s0 0-.0001 0h-.0001c-.0001 0-.0001 0-.0001 0s0 0-.0001 0-.0001 0-.0001 0 0 0-.0001 0h-.0001c-.0001 0-.0001 0-.0001 0s0 0-.0001 0h-.0001c-.0001 0-.0001 0-.0001 0s0 0-.0001 0h-.0001c-.0001 0-.0001 0-.0001 0s0 0-.0001 0h-.0001s0 0-.0001 0h-.0001c-.0001 0-.0001 0-.0001 0s0 0-.0001 0h-.0001c-.0001 0-.0001 0-.0001 0s0 0-.0001 0h-.0001c-.0001 0-.0001 0-.0001 0s0 0-.0001 0-.0001 0-.0001 0 0 0-.0001 0h-.0001c-.0001 0-.0001 0-.0001 0s0 0-.0001 0h-.0001c-.0001 0-.0001 0-.0001 0s0 0-.0001 0-.0001 0-.0001 0 0 0-.0001 0h-.0001c-.0001 0-.0001 0-.0001 0s0 0-.0001 0zm-1.77669-.02894c-.00165-.00212.01349.01779.05008.06802.03342.04587.07961.10995.13661.19041.1141.16089.2703.38549.4535.65874.3672.54757.8387 1.28437 1.2955 2.09147l1.7405-.9852c-.9709-1.7154-1.9963-3.1212-2.0975-3.25132zm2.54879 1.54964c-2.47374.6584-4.62433.6281-4.75287.6281v2c.16556 0 2.53137.0328 5.26727-.6953zm-3.77348 1.8301c.28203-1.3674 1.19717-2.50609 2.43868-3.0883l-.8492-1.81077c-1.80451.84624-3.13707 2.50145-3.54826 4.49507zm1.03802 3.8801c-.70601-.7921-1.13294-1.829-1.13294-2.9582h-2c0 1.6435.62338 3.1485 1.63991 4.289zm-1.13294-2.9582c0-.0001 0-.0003 0-.0004s0-.0002 0-.0003 0-.0002 0-.0003 0-.0002 0-.0003 0-.0002 0-.0003 0-.0002 0-.0003 0-.0002 0-.0003 0-.0002 0-.0003 0-.0002 0-.0003 0-.0002 0-.0003 0-.0002 0-.0003c0-.0002 0-.0003 0-.0004s0-.0002 0-.0003 0-.0002 0-.0003 0-.0002 0-.0003 0-.0002 0-.0003 0-.0002 0-.0003 0-.0002 0-.0003 0-.0002 0-.0003 0-.0002 0-.0003c0-.0002 0-.0003 0-.0004s0-.0002 0-.0003 0-.0002 0-.0003 0-.0002 0-.0003 0-.0002 0-.0003 0-.0002 0-.0003 0-.0002 0-.0003 0-.0002 0-.0004c0-.0001 0-.0002 0-.0003s0-.0002 0-.0003 0-.0002 0-.0003 0-.0002 0-.0003 0-.0002 0-.0003 0-.0002 0-.0003 0-.0003 0-.0004 0-.0002 0-.0003 0-.0002 0-.0003 0-.0002 0-.0003 0-.0002 0-.0003 0-.0002 0-.0003 0-.0002 0-.0004c0-.0001 0-.0002 0-.0003s0-.0002 0-.0003 0-.0002 0-.0003 0-.0002 0-.0003 0-.0002 0-.0003 0-.0003 0-.0004 0-.0002 0-.0003 0-.0002 0-.0003 0-.0002 0-.0003 0-.0002 0-.0003 0-.0002 0-.0004c0-.0001 0-.0002 0-.0003s0-.0002 0-.0003 0-.0002 0-.0003 0-.0002 0-.0003 0-.0002 0-.0003c0-.0002 0-.0003 0-.0004s0-.0002 0-.0003 0-.0002 0-.0003 0-.0002 0-.0003 0-.0002 0-.0004c0-.0001 0-.0002 0-.0003s0-.0002 0-.0003 0-.0002 0-.0003 0-.0002 0-.0003 0-.0002 0-.0004c0-.0001 0-.0002 0-.0003s0-.0002 0-.0003 0-.0002 0-.0003 0-.0002 0-.0003c0-.0002 0-.0003 0-.0004s0-.0002 0-.0003 0-.0002 0-.0003 0-.0002 0-.0003 0-.0003 0-.0004 0-.0002 0-.0003 0-.0002 0-.0003 0-.0002 0-.0003 0-.0002 0-.0004c0-.0001 0-.0002 0-.0003s0-.0002 0-.0003 0-.0002 0-.0003 0-.0002 0-.0004c0-.0001 0-.0002 0-.0003s0-.0002 0-.0003 0-.0002 0-.0003 0-.0002 0-.0004c0-.0001 0-.0002 0-.0003s0-.0002 0-.0003 0-.0002 0-.0003 0-.0002 0-.0004c0-.0001 0-.0002 0-.0003s0-.0002 0-.0003 0-.0002 0-.0003 0-.0002 0-.0004c0-.0001 0-.0002 0-.0003s0-.0002 0-.0003 0-.0002 0-.0003 0-.0003 0-.0004 0-.0002 0-.0003 0-.0002 0-.0003 0-.0002 0-.0003c0-.0002 0-.0003 0-.0004s0-.0002 0-.0003 0-.0002 0-.0003 0-.0002 0-.0004c0-.0001 0-.0002 0-.0003s0-.0002 0-.0003 0-.0002 0-.0003c0-.0002 0-.0003 0-.0004s0-.0002 0-.0003 0-.0002 0-.0003 0-.0002 0-.0004c0-.0001 0-.0002 0-.0003s0-.0002 0-.0003 0-.0002 0-.0003c0-.0002 0-.0003 0-.0004s0-.0002 0-.0003 0-.0002 0-.0003 0-.0003 0-.0004 0-.0002 0-.0003 0-.0002 0-.0003 0-.0002 0-.0004c0-.0001 0-.0002 0-.0003s0-.0002 0-.0003 0-.0002 0-.0003c0-.0002 0-.0003 0-.0004s0-.0002 0-.0003 0-.0002 0-.0003 0-.0003 0-.0004 0-.0002 0-.0003 0-.0002 0-.0003 0-.0003 0-.0004 0-.0002 0-.0003 0-.0002 0-.0003 0-.0002 0-.0004c0-.0001 0-.0002 0-.0003s0-.0002 0-.0003 0-.0002 0-.0004c0-.0001 0-.0002 0-.0003s0-.0002 0-.0003 0-.0002 0-.0004c0-.0001 0-.0002 0-.0003s0-.0002 0-.0003 0-.0002 0-.0003c0-.0002 0-.0003 0-.0004s0-.0002 0-.0003 0-.0002 0-.0003c0-.0002 0-.0003 0-.0004s0-.0002 0-.0003 0-.0002 0-.0003c0-.0002 0-.0003 0-.0004s0-.0002 0-.0003 0-.0002 0-.0003c0-.0002 0-.0003 0-.0004s0-.0002 0-.0003 0-.0002 0-.0003c0-.0002 0-.0003 0-.0004s0-.0002 0-.0003 0-.0002 0-.0004c0-.0001 0-.0002 0-.0003s0-.0002 0-.0003 0-.0002 0-.0004c0-.0001 0-.0002 0-.0003s0-.0002 0-.0003 0-.0002 0-.0004c0-.0001 0-.0002 0-.0003s0-.0002 0-.0003 0-.0003 0-.0004 0-.0002 0-.0003 0-.0002 0-.0003 0-.0003 0-.0004 0-.0002 0-.0003 0-.0002 0-.0003c0-.0002 0-.0003 0-.0004s0-.0002 0-.0003 0-.0002 0-.0003c0-.0002 0-.0003 0-.0004s0-.0002 0-.0003 0-.0002 0-.0004c0-.0001 0-.0002 0-.0003s0-.0002 0-.0003 0-.0002 0-.0004c0-.0001 0-.0002 0-.0003s0-.0002 0-.0003 0-.0003 0-.0004 0-.0002 0-.0003 0-.0002 0-.0003c0-.0002 0-.0003 0-.0004s0-.0002 0-.0003 0-.0002 0-.0004c0-.0001 0-.0002 0-.0003s0-.0002 0-.0003 0-.0002 0-.0004c0-.0001 0-.0002 0-.0003s0-.0002 0-.0003 0-.0003 0-.0004 0-.0002 0-.0003 0-.0002 0-.0003c0-.0002 0-.0003 0-.0004s0-.0002 0-.0003 0-.0002 0-.0004c0-.0001 0-.0002 0-.0003s0-.0002 0-.0003 0-.0003 0-.0004 0-.0002 0-.0003 0-.0002 0-.0003c0-.0002 0-.0003 0-.0004s0-.0002 0-.0003 0-.0002 0-.0004c0-.0001 0-.0002 0-.0003s0-.0002 0-.0003 0-.0003 0-.0004 0-.0002 0-.0003 0-.0002 0-.0003c0-.0002 0-.0003 0-.0004s0-.0002 0-.0003 0-.0002 0-.0004c0-.0001 0-.0002 0-.0003s0-.0002 0-.0003 0-.0003 0-.0004 0-.0002 0-.0003 0-.0002 0-.0003c0-.0002 0-.0003 0-.0004s0-.0002 0-.0003 0-.0002 0-.0004c0-.0001 0-.0002 0-.0003s0-.0002 0-.0003 0-.0003 0-.0004 0-.0002 0-.0003 0-.0002 0-.0004c0-.0001 0-.0002 0-.0003s0-.0002 0-.0003 0-.0003 0-.0004 0-.0002 0-.0003 0-.0002 0-.0003c0-.0002 0-.0003 0-.0004s0-.0002 0-.0003 0-.0002 0-.0004c0-.0001 0-.0002 0-.0003s0-.0002 0-.0003 0-.0003 0-.0004 0-.0002 0-.0003 0-.0002 0-.0003c0-.0002 0-.0003 0-.0004s0-.0002 0-.0003 0-.0003 0-.0004 0-.0002 0-.0003 0-.0002 0-.0003c0-.0002 0-.0003 0-.0004s0-.0002 0-.0003 0-.0002 0-.0004c0-.0001 0-.0002 0-.0003s0-.0002 0-.0003 0-.0003 0-.0004 0-.0002 0-.0003 0-.0002 0-.0003c0-.0002 0-.0003 0-.0004s0-.0002 0-.0003 0-.0003 0-.0004 0-.0002 0-.0003 0-.0002 0-.0003c0-.0002 0-.0003 0-.0004s0-.0002 0-.0003 0-.0002 0-.0004c0-.0001 0-.0002 0-.0003s0-.0002 0-.0003 0-.0003 0-.0004 0-.0002 0-.0003 0-.0002 0-.0003c0-.0002 0-.0003 0-.0004s0-.0002 0-.0003 0-.0003 0-.0004 0-.0002 0-.0003 0-.0002 0-.0003c0-.0002 0-.0003 0-.0004s0-.0002 0-.0003 0-.0002 0-.0004c0-.0001 0-.0002 0-.0003s0-.0002 0-.0003 0-.0003 0-.0004 0-.0002 0-.0003 0-.0002 0-.0003c0-.0002 0-.0003 0-.0004s0-.0002 0-.0003 0-.0002 0-.0004c0-.0001 0-.0002 0-.0003s0-.0002 0-.0003 0-.0003 0-.0004 0-.0002 0-.0003 0-.0002 0-.0004c0-.0001 0-.0002 0-.0003s0-.0002 0-.0003 0-.0003 0-.0004 0-.0002 0-.0003 0-.0002 0-.0003c0-.0002 0-.0003 0-.0004s0-.0002 0-.0003 0-.0002 0-.0004c0-.0001 0-.0002 0-.0003s0-.0002 0-.0003 0-.0003 0-.0004 0-.0002 0-.0003 0-.0002 0-.0003c0-.0002 0-.0003 0-.0004s0-.0002 0-.0003 0-.0002 0-.0004c0-.0001 0-.0002 0-.0003s0-.0002 0-.0003 0-.0003 0-.0004 0-.0002 0-.0003 0-.0002 0-.0003 0-.0003 0-.0004 0-.0002 0-.0003 0-.0002 0-.0003c0-.0002 0-.0003 0-.0004s0-.0002 0-.0003 0-.0002 0-.0004c0-.0001 0-.0002 0-.0003s0-.0002 0-.0003 0-.0003 0-.0004 0-.0002 0-.0003 0-.0002 0-.0003c0-.0002 0-.0003 0-.0004s0-.0002 0-.0003 0-.0002 0-.0003c0-.0002 0-.0003 0-.0004s0-.0002 0-.0003 0-.0002 0-.0004c0-.0001 0-.0002 0-.0003s0-.0002 0-.0003 0-.0003 0-.0004 0-.0002 0-.0003 0-.0002 0-.0003 0-.0003 0-.0004 0-.0002 0-.0003 0-.0002 0-.0003c0-.0002 0-.0003 0-.0004s0-.0002 0-.0003 0-.0002 0-.0003c0-.0002 0-.0003 0-.0004s0-.0002 0-.0003 0-.0002 0-.0004c0-.0001 0-.0002 0-.0003s0-.0002 0-.0003 0-.0002 0-.0004c0-.0001 0-.0002 0-.0003s0-.0002 0-.0003 0-.0002 0-.0004c0-.0001 0-.0002 0-.0003s0-.0002 0-.0003 0-.0003 0-.0004 0-.0002 0-.0003 0-.0002 0-.0003 0-.0003 0-.0004 0-.0002 0-.0003 0-.0002 0-.0003 0-.0003 0-.0004 0-.0002 0-.0003 0-.0002 0-.0003 0-.0003 0-.0004 0-.0002 0-.0003 0-.0002 0-.0003 0-.0003 0-.0004 0-.0002 0-.0003 0-.0002 0-.0003 0-.0003 0-.0004 0-.0002 0-.0003 0-.0002 0-.0003 0-.0002 0-.0004c0-.0001 0-.0002 0-.0003s0-.0002 0-.0003 0-.0002 0-.0004c0-.0001 0-.0002 0-.0003s0-.0002 0-.0003 0-.0002 0-.0004c0-.0001 0-.0002 0-.0003s0-.0002 0-.0003 0-.0002 0-.0003c0-.0002 0-.0003 0-.0004s0-.0002 0-.0003 0-.0002 0-.0003 0-.0003 0-.0004 0-.0002 0-.0003 0-.0002 0-.0003 0-.0003 0-.0004 0-.0002 0-.0003 0-.0002 0-.0003 0-.0002 0-.0004c0-.0001 0-.0002 0-.0003s0-.0002 0-.0003 0-.0002 0-.0003c0-.0002 0-.0003 0-.0004s0-.0002 0-.0003 0-.0002 0-.0003 0-.0002 0-.0004c0-.0001 0-.0002 0-.0003s0-.0002 0-.0003 0-.0002 0-.0003c0-.0002 0-.0003 0-.0004s0-.0002 0-.0003 0-.0002 0-.0003 0-.0003 0-.0004 0-.0002 0-.0003 0-.0002 0-.0003 0-.0002 0-.0003c0-.0002 0-.0003 0-.0004s0-.0002 0-.0003 0-.0002 0-.0003 0-.0002 0-.0004c0-.0001 0-.0002 0-.0003s0-.0002 0-.0003 0-.0002 0-.0003 0-.0003 0-.0004 0-.0002 0-.0003 0-.0002 0-.0003 0-.0002 0-.0003 0-.0003 0-.0004 0-.0002 0-.0003 0-.0002 0-.0003 0-.0002 0-.0003c0-.0002 0-.0003 0-.0004s0-.0002 0-.0003 0-.0002 0-.0003 0-.0002 0-.0003c0-.0002 0-.0003 0-.0004s0-.0002 0-.0003 0-.0002 0-.0003 0-.0002 0-.0003c0-.0002 0-.0003 0-.0004s0-.0002 0-.0003 0-.0002 0-.0003 0-.0002 0-.0003 0-.0003 0-.0004 0-.0002 0-.0003 0-.0002 0-.0003 0-.0002 0-.0003 0-.0002 0-.0004c0-.0001 0-.0002 0-.0003s0-.0002 0-.0003 0-.0002 0-.0003 0-.0002 0-.0003c0-.0002 0-.0003 0-.0004s0-.0002 0-.0003 0-.0002 0-.0003 0-.0002 0-.0003 0-.0002 0-.0004c0-.0001 0-.0002 0-.0003s0-.0002 0-.0003 0-.0002 0-.0003 0-.0002 0-.0003 0-.0002 0-.0004c0-.0001 0-.0002 0-.0003s0-.0002 0-.0003 0-.0002 0-.0003 0-.0002 0-.0003 0-.0002 0-.0004c0-.0001 0-.0002 0-.0003s0-.0002 0-.0003 0-.0002 0-.0003 0-.0002 0-.0003 0-.0002 0-.0003c0-.0002 0-.0003 0-.0004s0-.0002 0-.0003 0-.0002 0-.0003 0-.0002 0-.0003 0-.0002 0-.0003 0-.0003 0-.0004 0-.0002 0-.0003 0-.0002 0-.0003 0-.0002 0-.0003 0-.0002 0-.0003 0-.0002 0-.0003 0-.0002 0-.0004c0-.0001 0-.0002 0-.0003s0-.0002 0-.0003 0-.0002 0-.0003 0-.0002 0-.0003 0-.0002 0-.0003 0-.0002 0-.0003c0-.0002 0-.0003 0-.0004s0-.0002 0-.0003 0-.0002 0-.0003 0-.0002 0-.0003 0-.0002 0-.0003 0-.0002 0-.0003 0-.0002 0-.0003 0-.0003 0-.0004 0-.0002 0-.0003 0-.0002 0-.0003 0-.0002 0-.0003 0-.0002 0-.0003 0-.0002 0-.0003 0-.0002 0-.0003 0-.0002 0-.0003 0-.0003 0-.0004 0-.0002 0-.0003 0-.0002 0-.0003 0-.0002 0-.0003 0-.0002 0-.0003 0-.0002 0-.0003 0-.0002 0-.0003 0-.0002 0-.0003 0-.0002 0-.0003 0-.0002 0-.0003 0-.0003 0-.0004 0-.0002 0-.0003 0-.0002 0-.0003 0-.0002 0-.0003 0-.0002 0-.0003 0-.0002 0-.0003h-2v.0003.0003.0003.0003.0003.0004.0003.0003.0003.0003.0003.0003.0003.0003.0003.0004.0003.0003.0003.0003.0003.0003.0003.0004.0003.0003.0003.0003.0003.0003.0004.0003.0003.0003.0003.0003.0003.0004.0003.0003.0003.0003.0003.0004.0003.0003.0003.0003.0004.0003.0003.0003.0003.0003.0004.0003.0003.0003.0003.0004.0003.0003.0003.0003.0004.0003.0003.0003.0004.0003.0003.0003.0003.0004.0003.0003.0003.0004.0003.0003.0003.0004.0003.0003.0003.0004.0003.0003.0003.0004.0003.0003.0003.0004.0003.0003.0003.0004.0003.0003.0003.0004.0003.0003.0004.0003.0003.0003.0004.0003.0003.0004.0003.0003.0003.0004.0003.0003.0004.0003.0003.0003.0004.0003.0003.0004.0003.0003.0004.0003.0003.0004.0003.0003.0003.0004.0003.0003.0004.0003.0003.0004.0003.0003.0004.0003.0003.0004.0003.0003.0004.0003.0003.0004.0003.0003.0004.0003.0003.0004.0003.0003.0004.0003.0003.0004.0003.0003.0004.0003.0004.0003.0003.0004.0003.0003.0004.0003.0003.0004.0003.0003.0004.0003.0004.0003.0003.0004.0003.0003.0004.0003.0003.0004.0003.0004.0003.0003.0004.0003.0003.0004.0003.0003.0004.0003.0004.0003.0003.0004.0003.0003.0004.0003.0004.0003.0003.0004.0003.0003.0004.0003.0004.0003.0003.0004.0003.0004.0003.0003.0004.0003.0003.0004.0003.0004.0003.0003.0004.0003.0004.0003.0003.0004.0003.0003.0004.0003.0004.0003.0003.0004.0003.0004.0003.0003.0004.0003.0003.0004.0003.0004.0003.0003.0004.0003.0004.0003.0003.0004.0003.0003.0004.0003.0004.0003.0003.0004.0003.0003.0004.0003.0004.0003.0003.0004.0003.0004.0003.0003.0004.0003.0003.0004.0003.0004.0003.0003.0004.0003.0003.0004.0003.0004.0003.0003.0004.0003.0003.0004.0003.0004.0003.0003.0004.0003.0003.0004.0003.0003.0004.0003.0004.0003.0003.0004.0003.0003.0004.0003.0003.0004.0003.0004.0003.0003.0004.0003.0003.0004.0003.0003.0004.0003.0003.0004.0003.0003.0004.0003.0003.0004.0003.0004.0003.0003.0004.0003.0003.0004.0003.0003.0004.0003.0003.0004.0003.0003.0003.0004.0003.0003.0004.0003.0003.0004.0003.0003.0004.0003.0003.0004.0003.0003.0004.0003.0003.0003.0004.0003.0003.0004.0003.0003.0004.0003.0003.0003.0004.0003.0003.0004.0003.0003.0003.0004.0003.0003.0004.0003.0003.0003.0004.0003.0003.0003.0004.0003.0003.0003.0004.0003.0003.0003.0004.0003.0003.0003.0004.0003.0003.0003.0004.0003.0003.0003.0004.0003.0003.0003.0004.0003.0003.0003.0003.0004.0003.0003.0003.0003.0004.0003.0003.0003.0004.0003.0003.0003.0003.0003.0004.0003.0003.0003.0003.0004.0003.0003.0003.0003.0003.0004.0003.0003.0003.0003.0003.0004.0003.0003.0003.0003.0003.0003.0004.0003.0003.0003.0003.0003.0003.0004.0003.0003.0003.0003.0003.0003.0003.0003.0004.0003.0003.0003.0003.0003.0003.0003.0003.0003.0003.0004zm-1 .8319c-.00039 0 .00007.0001.03734.0005.02788.0002.06597.0005.11347.0006.09495.0001.22641-.0008.38942-.0047.32572-.0076.7779-.0269 1.31718-.0737 1.07429-.093 2.51459-.2964 3.99729-.7423l-.576-1.9153c-2.6391.7937-5.18507.7349-5.2787.7349zm4.6785-1.3178c.1492.2884.286.5721.4118.8625l1.8351-.7953c-.1472-.3398-.3045-.6653-.4704-.9861zm1.0546-.4967c-.0679.0194-.1638.0466-.2515.0759l.6324 1.8974c.0384-.0128.0895-.0276.1686-.0502zm-.2423.0729c-1.6744.5401-2.9162 1.5547-3.72677 2.4085-.40786.4296-.71541.8278-.92292 1.123-.10389.1477-.18392.2714-.23998.3625-.0278.0452-.05111.0846-.06931.1168-.00845.0149-.01911.0341-.02959.0543-.0038.0073-.01533.0296-.02787.0576-.0033.0074-.02307.0508-.04125.1082-.00416.0131-.03713.112-.04495.2425-.00148.0849.0336.3235.08662.4709.14584.2321.61738.5447.91164.589v-2c.29423.0443.76574.3569.91156.5889.053.1473.08807.3859.0866.4708-.00781.1303-.04073.2289-.04479.2417-.01797.0567-.03735.0993-.04008.1054-.01141.0254-.02107.0439-.02226.0462-.00528.0102-.0078.0144-.00519.0098.00392-.0069.01445-.0251.03215-.0538.03493-.0568.09259-.1464.17289-.2606.1607-.2287.4072-.5486.7372-.8962.6652-.7007 1.6343-1.4769 2.8903-1.8821zm-4.10438 3.5333c-.00002 0-.00004 0-.00006 0s-.00004 0-.00006 0-.00004 0-.00006 0-.00004 0-.00006 0-.00004 0-.00006 0-.00004 0-.00006 0-.00004 0-.00005 0c-.00002 0-.00004 0-.00006 0s-.00004 0-.00006 0-.00004 0-.00006 0-.00003 0-.00005 0-.00004 0-.00006 0-.00004 0-.00006 0c-.00001 0-.00003 0-.00005 0s-.00004 0-.00006 0c-.00001 0-.00003 0-.00005 0s-.00004 0-.00005 0c-.00002 0-.00004 0-.00006 0-.00001 0-.00003 0-.00005 0s-.00003 0-.00005 0-.00004 0-.00005 0c-.00002 0-.00004 0-.00006 0-.00001 0-.00003 0-.00005 0-.00001 0-.00003 0-.00005 0-.00001 0-.00003 0-.00005 0-.00001 0-.00003 0-.00005 0-.00001 0-.00003 0-.00005 0-.00001 0-.00003 0-.00005 0-.00001 0-.00003 0-.00004 0-.00002 0-.00004 0-.00005 0-.00002 0-.00003 0-.00005 0s-.00003 0-.00005 0c-.00001 0-.00003 0-.00004 0-.00002 0-.00003 0-.00005 0-.00001 0-.00003 0-.00005 0-.00001 0-.00003 0-.00004 0-.00002 0-.00003 0-.00005 0-.00001 0-.00002 0-.00004 0-.00001 0-.00003 0-.00004 0-.00002 0-.00003 0-.00005 0-.00001 0-.00003 0-.00004 0-.00002 0-.00003 0-.00004 0-.00002 0-.00003 0-.00005 0-.00001 0-.00002 0-.00004 0-.00001 0-.00003 0-.00004 0s-.00003 0-.00004 0-.00003 0-.00004 0-.00003 0-.00004 0-.00003 0-.00004 0-.00003 0-.00004 0-.00003 0-.00004 0-.00003 0-.00004 0-.00002 0-.00004 0c-.00001 0-.00002 0-.00003 0-.00002 0-.00003 0-.00004 0s-.00003 0-.00004 0-.00002 0-.00004 0c-.00001 0-.00002 0-.00003 0s-.00003 0-.00004 0-.00002 0-.00003 0c-.00002 0-.00003 0-.00004 0s-.00002 0-.00003 0-.00003 0-.00004 0-.00002 0-.00003 0-.00002 0-.00003 0c-.00002 0-.00003 0-.00004 0s-.00002 0-.00003 0-.00002 0-.00003 0-.00002 0-.00003 0-.00003 0-.00004 0-.00002 0-.00003 0-.00002 0-.00003 0-.00002 0-.00003 0-.00002 0-.00003 0-.00002 0-.00003 0-.00002 0-.00003 0-.00002 0-.00003 0-.00002 0-.00002 0c-.00001 0-.00002 0-.00003 0s-.00002 0-.00003 0-.00002 0-.00003 0-.00002 0-.00002 0c-.00001 0-.00002 0-.00003 0s-.00002 0-.00003 0-.00002 0-.00002 0c-.00001 0-.00002 0-.00003 0s-.00002 0-.00002 0c-.00001 0-.00002 0-.00003 0s-.00002 0-.00002 0c-.00001 0-.00002 0-.00003 0s-.00001 0-.00002 0-.00002 0-.00003 0c0 0-.00001 0-.00002 0s-.00001 0-.00002 0-.00002 0-.00002 0c-.00001 0-.00002 0-.00003 0 0 0-.00001 0-.00002 0 0 0-.00001 0-.00002 0s-.00001 0-.00002 0-.00001 0-.00002 0-.00001 0-.00002 0-.00001 0-.00002 0-.00001 0-.00002 0-.00001 0-.00002 0-.00001 0-.00002 0c0 0-.00001 0-.00002 0 0 0-.00001 0-.00002 0h-.00001c-.00001 0-.00002 0-.00002 0-.00001 0-.00001 0-.00002 0 0 0-.00001 0-.00002 0h-.00001c-.00001 0-.00001 0-.00002 0h-.00001c-.00001 0-.00002 0-.00002 0-.00001 0-.00001 0-.00002 0h-.00001c-.00001 0-.00001 0-.00002 0h-.00001c-.00001 0-.00001 0-.00001 0-.00001 0-.00001 0-.00002 0h-.00001c-.00001 0-.00001 0-.00002 0 0 0 0 0-.00001 0h-.00001-.00001c-.00001 0-.00001 0-.00001 0-.00001 0-.00001 0-.00002 0 0 0 0 0-.00001 0h-.00001-.00001-.00001-.00001-.00001-.00001-.00001-.00001s0 0-.00001 0c0 0 0 0-.00001 0s-.00001 0-.00001 0h-.00001s0 0-.00001 0-.00001 0-.00001 0 0 0-.00001 0-.00001 0-.00001 0c-.00001 0-.00001 0-.00001 0s0 0-.00001 0-.00001 0-.00001 0h-.00001-.00001c-.00001 0-.00001 0-.00001 0v2h.00001.00001.00001.00001.00001.00001.00001.00001.00001.00001.00001.00001.00001.00001.00001.00001.00001.00001.00001.00001.00001.00001.00001.00001.00001.00001.00001.00001.00001.00001.00001.00001.00002.00001.00001.00001.00001.00001.00002.00001.00001.00001.00002.00001.00001.00002.00001.00001.00002.00001.00001.00002.00001.00002.00001.00002.00001.00002.00001.00002.00001.00002.00001.00002.00001.00002.00001.00002.00002.00001.00002.00002.00001.00002.00002.00001.00002.00002.00001.00002.00002.00002.00001.00002.00002.00002.00001.00002.00002.00002.00002.00002.00001.00002.00002.00002.00002.00002.00002.00001.00002.00002.00002.00002.00002.00002.00002.00002.00002.00002.00002.00002.00002.00002.00002.00001.00002.00002.00002.00002.00002.00002.00002.00002.00002.00003.00002.00002.00002.00002.00002.00002.00002.00002.00002.00002.00002.00002.00002.00002.00002.00002.00002.00002.00002.00002.00002.00002.00002.00003.00002.00002.00002.00002.00002.00002.00002.00002.00002.00002.00002.00002.00002.00002.00002.00002.00002.00002.00002.00002.00002.00002.00002.00002.00002.00002.00002.00002.00002.00002.00002.00002.00002.00002.00002.00002.00002.00002.00002.00002.00002.00002.00001.00002.00002.00002.00002.00002.00002.00002.00002.00001.00002.00002.00002.00002.00001.00002.00002.00002.00002.00001.00002.00002.00002.00001.00002.00002.00001.00002.00002.00001.00002.00002.00001.00002.00002.00001.00002.00001.00002.00001.00002.00002.00001.00002.00001.00002.00001.00001.00002.00001.00002.00001.00002.00001.00001.00002.00001.00001.00002.00001.00001.00001.00002.00001.00001.00001.00001.00002.00001.00001.00001.00001.00001.00001.00001.00001.00001.00001.00001.00001.00001.00001.00001.00001.00001.00001.00001.00001.00001.00001.00001.00001.00001.00001.00001.00001.00001.00001.00001.00001.00001.00001.00001s0 0 0-1 0-1 0-1c-.00001 0-.00001 0-.00001 0s0 0-.00001 0 0 0-.00001 0h-.00001s0 0-.00001 0 0 0-.00001 0 0 0-.00001 0h-.00001c-.00001 0-.00001 0-.00001 0h-.00001c-.00001 0-.00001 0-.00001 0h-.00001s0 0-.00001 0-.00001 0-.00001 0h-.00001s0 0-.00001 0-.00001 0-.00001 0c-.00001 0-.00001 0-.00001 0h-.00001-.00001-.00001s0 0-.00001 0c0 0 0 0-.00001 0 0 0 0 0-.00001 0 0 0 0 0-.00001 0 0 0 0 0-.00001 0 0 0 0 0-.00001 0 0 0 0 0-.00001 0 0 0 0 0-.00001 0 0 0 0 0-.00001 0h-.00001-.00001-.00001-.00001c-.00001 0-.00001 0-.00001 0-.00001 0-.00001 0-.00002 0 0 0 0 0-.00001 0h-.00001-.00001c-.00001 0-.00001 0-.00001 0-.00001 0-.00001 0-.00002 0 0 0 0 0-.00001 0h-.00001c-.00001 0-.00001 0-.00001 0-.00001 0-.00001 0-.00002 0h-.00001c-.00001 0-.00001 0-.00001 0-.00001 0-.00001 0-.00002 0h-.00001c-.00001 0-.00001 0-.00001 0-.00001 0-.00001 0-.00002 0h-.00001c-.00001 0-.00001 0-.00002 0h-.00001c-.00001 0-.00001 0-.00002 0h-.00001-.00001c-.00001 0-.00001 0-.00002 0h-.00001c-.00001 0-.00001 0-.00002 0h-.00001c-.00001 0-.00001 0-.00002 0 0 0-.00001 0-.00002 0h-.00001c-.00001 0-.00001 0-.00002 0h-.00001c-.00001 0-.00001 0-.00002 0h-.00001c-.00001 0-.00001 0-.00002 0s-.00001 0-.00002 0h-.00001c-.00001 0-.00001 0-.00002 0 0 0-.00001 0-.00002 0h-.00001c-.00001 0-.00001 0-.00002 0 0 0-.00001 0-.00002 0h-.00001c-.00001 0-.00001 0-.00002 0s-.00001 0-.00002 0h-.00001c-.00001 0-.00002 0-.00002 0-.00001 0-.00001 0-.00002 0 0 0-.00001 0-.00002 0h-.00001c-.00001 0-.00002 0-.00002 0-.00001 0-.00001 0-.00002 0s-.00001 0-.00002 0c0 0-.00001 0-.00002 0h-.00001c-.00001 0-.00002 0-.00002 0-.00001 0-.00001 0-.00002 0s-.00001 0-.00002 0c0 0-.00001 0-.00002 0h-.00001c-.00001 0-.00002 0-.00002 0-.00001 0-.00002 0-.00002 0-.00001 0-.00001 0-.00002 0s-.00001 0-.00002 0-.00001 0-.00002 0c0 0-.00001 0-.00002 0 0 0-.00001 0-.00002 0 0 0-.00001 0-.00002 0h-.00001c-.00001 0-.00002 0-.00002 0-.00001 0-.00002 0-.00002 0-.00001 0-.00002 0-.00002 0-.00001 0-.00001 0-.00002 0s-.00001 0-.00002 0-.00001 0-.00002 0-.00001 0-.00002 0-.00001 0-.00002 0-.00001 0-.00002 0c0 0-.00001 0-.00002 0 0 0-.00001 0-.00002 0 0 0-.00001 0-.00002 0 0 0-.00001 0-.00002 0 0 0-.00001 0-.00002 0 0 0-.00001 0-.00002 0 0 0-.00001 0-.00002 0 0 0-.00001 0-.00002 0 0 0-.00001 0-.00002 0 0 0-.00001 0-.00002 0 0 0-.00001 0-.00002 0 0 0-.00001 0-.00002 0 0 0-.00001 0-.00002 0 0 0-.00001 0-.00002 0 0 0-.00001 0-.00002 0 0 0-.00001 0-.00002 0 0 0-.00001 0-.00002 0 0 0-.00001 0-.00002 0s-.00001 0-.00002 0-.00001 0-.00002 0-.00001 0-.00002 0-.00001 0-.00002 0-.00001 0-.00002 0-.00001 0-.00002 0-.00001 0-.00002 0-.00001 0-.00002 0-.00001 0-.00002 0-.00002 0-.00002 0c-.00001 0-.00002 0-.00002 0-.00001 0-.00002 0-.00002 0-.00001 0-.00002 0-.00002 0-.00001 0-.00002 0-.00002 0-.00001 0-.00002 0-.00002 0-.00001 0-.00002 0-.00003 0 0 0-.00001 0-.00002 0 0 0-.00001 0-.00002 0 0 0-.00001 0-.00002 0 0 0-.00001 0-.00002 0 0 0-.00001 0-.00002 0 0 0-.00001 0-.00002 0s-.00001 0-.00002 0-.00001 0-.00002 0-.00001 0-.00002 0-.00001 0-.00002 0-.00001 0-.00002 0-.00001 0-.00002 0-.00001 0-.00002 0-.00002 0-.00002 0c-.00001 0-.00002 0-.00002 0-.00001 0-.00002 0-.00002 0-.00001 0-.00002 0-.00002 0-.00001 0-.00002 0-.00002 0-.00001 0-.00002 0-.00002 0-.00001 0-.00002 0-.00002 0-.00001 0-.00002 0-.00002 0-.00001 0-.00002 0-.00002 0-.00001 0-.00002 0-.00002 0-.00001 0-.00002 0-.00003 0 0 0-.00001 0-.00002 0 0 0-.00001 0-.00002 0 0 0-.00001 0-.00002 0 0 0-.00001 0-.00002 0 0 0-.00001 0-.00002 0 0 0-.00001 0-.00002 0 0 0-.00001 0-.00002 0 0 0-.00001 0-.00002 0 0 0-.00001 0-.00002 0h-.00001c-.00001 0-.00002 0-.00002 0-.00001 0-.00002 0-.00002 0-.00001 0-.00002 0-.00002 0-.00001 0-.00002 0-.00002 0-.00001 0-.00002 0-.00002 0-.00001 0-.00002 0-.00002 0-.00001 0-.00002 0-.00002 0-.00001 0-.00002 0-.00002 0-.00001 0-.00001 0-.00002 0s-.00001 0-.00002 0-.00001 0-.00002 0-.00001 0-.00002 0c0 0-.00001 0-.00002 0 0 0-.00001 0-.00002 0 0 0-.00001 0-.00002 0h-.00001c-.00001 0-.00002 0-.00002 0-.00001 0-.00002 0-.00002 0-.00001 0-.00001 0-.00002 0s-.00001 0-.00002 0-.00001 0-.00002 0c0 0-.00001 0-.00002 0h-.00001c-.00001 0-.00002 0-.00002 0-.00001 0-.00002 0-.00002 0-.00001 0-.00001 0-.00002 0s-.00001 0-.00002 0c0 0-.00001 0-.00002 0h-.00001c-.00001 0-.00002 0-.00002 0-.00001 0-.00001 0-.00002 0 0 0-.00001 0-.00002 0h-.00001c-.00001 0-.00002 0-.00002 0-.00001 0-.00001 0-.00002 0 0 0-.00001 0-.00002 0h-.00001c-.00001 0-.00001 0-.00002 0s-.00001 0-.00002 0h-.00001c-.00001 0-.00002 0-.00002 0-.00001 0-.00001 0-.00002 0h-.00001c-.00001 0-.00002 0-.00002 0-.00001 0-.00001 0-.00002 0h-.00001c-.00001 0-.00001 0-.00002 0s-.00001 0-.00002 0h-.00001c-.00001 0-.00001 0-.00002 0h-.00001c-.00001 0-.00001 0-.00002 0h-.00001c-.00001 0-.00001 0-.00002 0h-.00001c-.00001 0-.00001 0-.00002 0h-.00001c-.00001 0-.00001 0-.00002 0h-.00001c-.00001 0-.00001 0-.00002 0h-.00001c-.00001 0-.00001 0-.00002 0h-.00001c-.00001 0-.00001 0-.00002 0h-.00001-.00001c-.00001 0-.00001 0-.00002 0h-.00001c-.00001 0-.00001 0-.00001 0-.00001 0-.00001 0-.00002 0h-.00001-.00001c-.00001 0-.00001 0-.00002 0 0 0 0 0-.00001 0h-.00001c-.00001 0-.00001 0-.00001 0-.00001 0-.00001 0-.00002 0 0 0 0 0-.00001 0h-.00001-.00001c-.00001 0-.00001 0-.00001 0-.00001 0-.00001 0-.00001 0-.00001 0-.00001 0-.00002 0 0 0 0 0-.00001 0 0 0 0 0-.00001 0 0 0 0 0-.00001 0h-.00001-.00001-.00001-.00001-.00001-.00001-.00001s0 0-.00001 0c0 0 0 0-.00001 0 0 0 0 0-.00001 0s-.00001 0-.00001 0c-.00001 0-.00001 0-.00001 0h-.00001-.00001s0 0-.00001 0-.00001 0-.00001 0h-.00001s0 0-.00001 0-.00001 0-.00001 0 0 0-.00001 0h-.00001c-.00001 0-.00001 0-.00001 0s0 0-.00001 0 0 0-.00001 0 0 0-.00001 0-.00001 0-.00001 0h-.00001s0 0-.00001 0 0 0-.00001 0v2h.00001.00001.00001.00001.00001.00001.00001.00001.00001.00001.00001.00001.00001.00001.00001.00001.00001.00001.00001.00001.00001.00001.00001.00002.00001.00001.00001.00001.00002.00001.00002.00001.00001.00002.00001.00002.00002.00001.00002.00001.00002.00002.00002.00001.00002.00002.00002.00002.00002.00002.00002.00002.00002.00002.00002.00003.00002.00002.00002.00003.00002.00003.00002.00003.00002.00003.00002.00003.00003.00002.00003.00003.00003.00002.00003.00003.00003.00003.00003.00003.00003.00004.00003.00003.00003.00004.00003.00003.00004.00003.00004.00003.00004.00003.00004.00004.00004.00003.00004.00004.00004.00004.00004.00004.00004.00004.00004.00004.00005.00004.00004.00005.00004.00004.00005.00004.00005.00005.00004.00005.00005.00005.00004.00005.00005.00005.00005.00005.00005.00006.00005.00005.00005.00006.00005.00005.00006.00005.00006.00006.00005.00006.00006.00006.00005.00006.00006.00006.00006.00006.00006zm4.03328 1.796c-1.0469 0-2.0051-.3591-2.769-.9686l-1.2472 1.5635c1.1057.8821 2.5003 1.4051 4.0162 1.4051zm-2.9454-1.0813c.027.0135.0496.0265.0672.0373.0176.0107.0317.0202.0415.0271.0099.0069.0172.0123.0209.0151.0036.0027.0057.0044.0044.0033-.0006-.0004-.0014-.001-.003-.0023-.0015-.0011-.0037-.0029-.0061-.0048-.005-.0038-.0122-.0094-.0206-.0158-.0172-.013-.0411-.0306-.0703-.05l-1.1094 1.6641c-.02197-.0146-.04279-.0314-.01858-.0125.00743.0058.0306.0238.05906.0437.02915.0203.07753.0522.14053.0837zm-1.0754 1.674c-.02197-.0146-.04279-.0314-.01858-.0125.00743.0058.0306.0238.05906.0437.02915.0203.07753.0522.14053.0837l.89439-1.7889c.027.0135.0496.0265.0672.0373.0176.0107.0317.0202.0415.0271.0099.0069.0172.0123.0209.0151.0036.0027.0057.0044.0044.0033-.0006-.0004-.0014-.001-.003-.0023-.0015-.0011-.0037-.0029-.0061-.0048-.005-.0038-.0122-.0094-.0206-.0158-.0172-.013-.0411-.0306-.0703-.05zm.07352.0525c-.02543-.0169-.04464-.0324-.05805-.0439-.00722-.0062-.01414-.0124-.02086-.0187-.0034-.0032-.00682-.0064-.0103-.0098-.00174-.0017-.0035-.0034-.00528-.0052-.0009-.0008-.0018-.0017-.0027-.0026-.00045-.0005-.00091-.0009-.00137-.0014-.00022-.0002-.00045-.0004-.00068-.0007-.00012-.0001-.00023-.0002-.00035-.0003-.00005-.0001-.00014-.0001-.00017-.0002-.00008-.0001-.00017-.0001.70698-.7072.70716-.7071.70706-.7072.70696-.7072 0-.0001-.0001-.0002-.0002-.0002-.0001-.0001-.0002-.0003-.0003-.0004-.0002-.0002-.0005-.0004-.0007-.0007-.0005-.0005-.001-.0009-.0015-.0014-.001-.001-.002-.002-.003-.0031-.0021-.002-.0044-.0042-.0068-.0065-.0047-.0046-.01-.0097-.0159-.0151-.0116-.0109-.0258-.0237-.0422-.0378-.0318-.0272-.0772-.0637-.1342-.1017zm.60722-.79c.90906.4166.90886.4171.90866.4175 0 .0001-.0002.0005-.0004.0008-.0002.0005-.0004.001-.0006.0014-.0004.0009-.0008.0017-.0011.0023-.0006.0013-.0009.002-.001.0022-.0002.0005.0005-.0011.0023-.0047.0035-.0071.0111-.0219.0229-.0438.0236-.0437.0641-.1151.1236-.2078.1192-.1857.3131-.4554.5977-.7598.5667-.606 1.4974-1.3551 2.9318-1.8567l-.6601-1.8879c-1.7795.6222-2.9758 1.5694-3.73252 2.3787-.37711.4033-.64398.771-.82025 1.0458-.08821.1375-.154.2521-.19979.3369-.02291.0424-.04085.0773-.05412.104-.00663.0134-.0121.0246-.01645.0337-.00217.0046-.00406.0086-.00568.0121-.0008.0017-.00154.0033-.00221.0047-.00034.0007-.00065.0014-.00096.0021-.00015.0003-.00036.0008-.00043.0009-.00021.0005-.00042.0009.90865.4176zm4.25386-2.3926c.0847 0 .1584-.0106.2177-.0235.0587-.0129.1068-.0288.1413-.0418.0344-.0129.0615-.0252.0773-.0326.0082-.0038.0149-.0071.0191-.0092.0039-.0019.0074-.0036.0076-.0037.0011-.0006-.001.0005-.0037.0018-.0029.0014-.0083.0041-.0152.0073-.0131.0061-.0375.0173-.0693.0292-.0319.0119-.0774.0271-.1335.0394-.0566.0124-.1277.0226-.2098.0226v-2c-.0848 0-.1584.0106-.2177.0236-.0587.0128-.1068.0288-.1414.0418-.0344.0129-.0615.0251-.0772.0325-.0082.0039-.0149.0071-.0191.0092-.004.0019-.0074.0037-.0076.0038-.0012.0005.001-.0005.0036-.0018.0029-.0015.0083-.0041.0152-.0073.0131-.0062.0376-.0173.0694-.0292.0319-.012.0774-.0271.1335-.0394.0566-.0124.1277-.0227.2098-.0227zm-.9014-.6502c.7355 1.9041 1.0349 3.4916 1.1001 3.9107l1.9763-.3074c-.0819-.5262-.4126-2.2577-1.2107-4.3239zm1.6779 2.8451c-.4902.2206-1.063.3425-1.6903.3425v2c.8852 0 1.7408-.1721 2.511-.5187zm2.3324.259c-.0598-.3708-.3675-2.0318-1.1089-4.0598l-1.8784.6867c.687 1.8792.9676 3.4112 1.0128 3.6916zm-1.8885-2.7293c.7483-.1209 1.4574-.0795 1.9994.0008.5463.0808.8878.1958.8813.1934l.6835-1.8796c-.2007-.0729-1.8965-.6102-3.8834-.2889zm2.235-.9033c-.1969 1.2328-.8987 2.2943-1.8918 2.962l1.116 1.6597c1.4437-.9708 2.4645-2.5141 2.7507-4.3063zm-1.8064-1.3408c-.0098-.0221-.0199-.0474-.0396-.0981-.017-.0439-.0437-.113-.0759-.1854l-1.8276.8122c.0098.0222.0198.0475.0395.0981.0171.0439.0438.1131.076.1855zm-.114-.2801c-.1145-.2603-.2366-.5379-.3709-.8178l-1.8031.8655c.1178.2453.2268.4928.3433.7577zm-.8956.5412c1.185-.4821 2.032-1.0774 2.593-1.5674.2801-.2446.4884-.4625.6317-.6261.0717-.0819.1269-.15.1664-.2006.0199-.0254.0352-.0457.046-.0602.0026-.0035.0049-.0065.0066-.0089.0023-.003.0025-.0032.0032-.0043.0011-.0015-.0014.002-.005.0066-.0015.0021-.0068.009-.0138.0178-.0035.0044-.0102.0126-.0188.0227-.0058.0067-.0259.0304-.0541.0586l-1.4142-1.41423c-.0283.02825-.0485.05204-.0544.05895-.0088.01028-.0156.01869-.0193.02331-.0074.00926-.0131.01675-.0153.01958-.0047.00621-.0088.01177-.0098.01301-.0043.00581-.0042.00575-.0074.01005-.0042.00561-.0108.01427-.02.02606-.0185.0237-.0498.06266-.0948.11401-.0901.10285-.2357.25656-.4426.43729-.4132.36086-1.0735.83157-2.0311 1.22127zm1.8741-2.4357c.6186.756.9963 1.7166 1.0135 2.7756l1.9997-.0325c-.0247-1.5249-.5713-2.917-1.4652-4.00956zm2.2303 1.7831c-.1196-.0265-2.0985-.4589-4.1375-.194l.2578 1.9833c1.6792-.2182 3.3764.1477 3.4458.1631z" fill="#1300ed" mask="url(#a)"/></svg>