<svg fill="none" height="26" viewBox="0 0 26 26" width="26" xmlns="http://www.w3.org/2000/svg"><g stroke="#1300ed"><path d="m1 7.32577v11.34853c0 3.4781 2.91068 6.3257 6.46234 6.3257h11.07526c3.5517 0 6.4624-2.8476 6.4624-6.3257v-11.34853c0-3.47811-2.9107-6.32574-6.4624-6.32574h-11.07526c-3.56217-.010509-6.46234 2.83712-6.46234 6.32574z" stroke-miterlimit="10" stroke-width="1.5"/><path d="m9.65851 6.42822h6.68299c1.7621 0 3.2198 1.47797 3.2198 3.30385v6.52543c0 1.8258-1.4577 3.3038-3.2198 3.3038h-6.68299c-1.75246 0-3.21979-1.4789-3.21979-3.3038v-6.52543c0-1.82588 1.45773-3.30385 3.21979-3.30385zm6.56739 12.87218c1.7065 0 3.0745-1.4232 3.0745-3.1375v-6.33626c0-1.71436-1.368-3.13747-3.0745-3.13747h-6.4413c-1.70643 0-3.07442 1.42311-3.07442 3.13747v6.33626c0 1.7143 1.36799 3.1375 3.07442 3.1375z" fill="#1300ed"/><g fill="#521af2"><path d="m9.94849 12.9895c0-1.7309 1.37321-3.12524 3.05161-3.12524s3.0517 1.39434 3.0517 3.12524-1.3733 3.1252-3.0517 3.1252c-1.6793 0-3.05161-1.3848-3.05161-3.1252zm.26091.0105c0 1.5582 1.2434 2.8432 2.7907 2.8432 1.5474 0 2.7908-1.285 2.7908-2.8432s-1.2434-2.8433-2.7908-2.8433c-1.5473 0-2.7907 1.2851-2.7907 2.8433z"/><path d="m17.0393 9.17509c0 .18884-.1458.31961-.2986.31961-.1527 0-.2986-.13077-.2986-.31961 0-.18885.1459-.31962.2986-.31962.1528 0 .2986.13077.2986.31962z"/></g></g></svg>