<svg fill="none" height="26" viewBox="0 0 26 26" width="26" xmlns="http://www.w3.org/2000/svg"><path d="m18.6665 1h-11.34352c-3.47658 0-6.32298 2.90941-6.32298 6.45952v11.08098c0 3.5501 2.8464 6.4595 6.32298 6.4595h11.34352c3.4766 0 6.323-2.9094 6.323-6.4595v-11.08098c0-3.55011-2.8464-6.45952-6.323-6.45952z" stroke="#1300ed" stroke-miterlimit="10" stroke-width="1.5"/><path clip-rule="evenodd" d="m8.49373 10.0401c.01574-.15483-.04356-.30756-.15903-.41148l-1.17567-1.4171v-.21152h3.65187l2.8227 6.1906 2.4815-6.1906h3.4813v.21152l-1.0056.96415c-.0866.06613-.1296.17477-.1118.28237v7.08446c-.0178.1071.0252.2157.1118.2818l.982.9642v.2115h-4.9399v-.2115l1.0177-.9878c.0997-.0997.0997-.1291.0997-.2818v-5.7262l-2.8284 7.1842h-.3821l-3.29343-7.1842v4.815c-.0273.2021.03988.4063.18212.5522l1.32311 1.605v.212h-3.7516v-.212l1.32315-1.605c.14171-.1465.20469-.3517.17058-.5522z" fill="#1300ed" fill-rule="evenodd"/></svg>