<svg fill="none" height="26" viewBox="0 0 26 26" width="26" xmlns="http://www.w3.org/2000/svg"><path d="m18.6665 1h-11.34352c-3.47658 0-6.32298 2.90941-6.32298 6.45952v11.08098c0 3.5501 2.8464 6.4595 6.32298 6.4595h11.34352c3.4766 0 6.323-2.9094 6.323-6.4595v-11.08098c0-3.55011-2.8464-6.45952-6.323-6.45952z" stroke="#1300ed" stroke-miterlimit="10" stroke-width="1.5"/><path d="m17.7363 8.00284c-1.7432-.06338-2.9207.93602-3.5419 2.98246.3195-.1429.6301-.2069.9308-.2069.6385 0 .9208.3651.8454 1.0906-.0377.4395-.3185 1.0785-.8444 1.9192-.5285.8407-.9234 1.2618-1.1864 1.2618-.7972 0-1.2765-3.8153-1.4389-4.8572-.2257-1.44827-.8276-2.12554-1.8055-2.03073-.89779.08538-2.46447 1.70182-3.6954 2.79763l.59137.771c.56308-.3991.89151-.5992.98527-.5992.98002 0 1.45456 3.335 2.21566 5.8152.5107 1.3687 1.123 2.0533 1.8611 2.0533 1.1858 0 2.6305-1.123 4.3423-3.3701 1.6525-2.1513 2.5084-3.8468 2.5634-5.0835l.0068-.0052c.0702-1.65786-.5348-2.50641-1.8296-2.53836z" fill="#1300ed"/></svg>