<svg fill="none" height="26" viewBox="0 0 26 26" width="26" xmlns="http://www.w3.org/2000/svg"><g stroke="#1300ed"><path d="m18.6665 1h-11.34352c-3.47659 0-6.32298 2.90941-6.32298 6.45952v11.08098c0 3.5501 2.84639 6.4595 6.32298 6.4595h11.34352c3.4766 0 6.323-2.9094 6.323-6.4595v-11.08098c0-3.55011-2.8464-6.45952-6.323-6.45952z" stroke-miterlimit="10" stroke-width="1.5"/><path d="m17.8613 9.69333c.0451-.00902.09-.01862.1346-.02878l.2871.79725c-.0446.0357-.0898.0706-.1357.1048l-.227.1691.0281.2817c.0076.0755.0081.1649.0081.2863 0 3.2317-2.3964 6.8943-6.7158 6.8943-.6773 0-1.33191-.1042-1.9498-.2973.7902-.1974 1.5147-.5658 2.135-1.059l1.0878-.8651-1.3896-.0262c-.6237-.0118-1.18362-.3145-1.55269-.7859.15582-.0187.30995-.0499.45809-.0944l-.04227-.9685c-.69461-.1439-1.26558-.6503-1.51041-1.3249.16327.0329.33155.0519.50369.0562l1.68329.0421-1.38753-.954c-.5394-.3708-.90712-1.0165-.90712-1.7517 0-.1219.0098-.24032.02868-.35511 1.30315 1.31621 3.06477 2.16451 5.02377 2.26201l.6552.0326-.1423-.6405c-.0337-.1514-.0511-.3145-.0511-.4797 0-1.17621.9237-2.10481 2.0313-2.10481.5773 0 1.1076.25085 1.48.65712l.1903.20768z" fill="#1300ed"/></g></svg>