<svg fill="none" height="39" viewBox="0 0 306 39" width="306" xmlns="http://www.w3.org/2000/svg"><g fill="#1300ed"><path d="m10.1333 38.5175 2.3148-5.0263h15.7915l2.3662 5.0263h10.1333l-18.1577-38.4662123h-4.578l-18.0034 38.4662123zm10.2362-22.0027 3.9094 8.4626h-7.8701z"/><path d="m78.3814 38.5175v-38.4662123h-10.1333v18.1560123l-18.2606-18.1560123h-4.115v38.4662123h10.1333v-18.2074l18.2091 18.2074z"/><path d="m102.269 17.8483v6.7701h7.459c-1.595 2.3079-4.424 3.7953-7.459 3.7953-4.732 0-9.1043-3.8466-9.1043-9.1293s4.2694-9.1293 9.1043-9.1293c2.624 0 4.784 1.0257 6.43 2.5644l7.15-7.07779c-3.498-3.43631-8.282-5.5904223-13.58-5.5904223-10.6474 0-19.2376 8.6164323-19.2376 19.2331123 0 10.6167 8.5902 19.2331 19.2376 19.2331 10.648 0 19.29-8.6164 19.29-19.2331v-1.4361z"/><path d="m136.227.0512877h-10.184v23.2849123c0 8.4625 6.738 15.1813 15.225 15.1813 8.385 0 15.226-6.7188 15.226-15.1813v-23.2849123h-10.185v23.1310123c0 2.7696-2.263 5.0262-5.041 5.0262-2.777 0-5.041-2.2566-5.041-5.0262z"/><path d="m187.368 11.8476c0-6.56491-5.298-11.7963123-11.882-11.7963123s-11.831 5.2826923-11.831 11.8476123c0 6.5649 5.247 11.7963 11.831 11.7963 1.594 0 2.932 1.3335 2.932 2.9234s-1.338 2.8721-2.932 2.8721c-1.595 0-2.881-1.2822-2.881-2.9234h-9.002c0 6.7701 5.299 11.9502 11.883 11.9502s11.882-5.2314 11.882-11.7963c0-2.8209-.926-5.3853-2.572-7.4368-2.161-2.7696-5.555-4.5647-9.31-4.5647-1.595 0-2.881-1.2822-2.881-2.8721s1.286-2.92344 2.881-2.92344c1.594 0 2.932 1.33354 2.932 2.92344z"/><path d="m193.738 10.0525h10.031v28.465h10.133v-28.465h10.236v-10.0525h-30.4z"/><path d="m231.079 38.5175h10.133v-38.4662123h-10.133z"/><path d="m256.525 38.5175 2.314-5.0263h15.792l2.366 5.0263h10.133l-18.157-38.4662123h-4.578l-18.004 38.4662123zm10.236-22.0027 3.909 8.4626h-7.87z"/><circle cx="299.58" cy="32.0979" r="6.41958"/></g></svg>